<?xml version="1.0" encoding="utf-8"?>
<!-- Generator: Adobe Illustrator 16.0.0, SVG Export Plug-In . SVG Version: 6.00 Build 0)  -->
<!DOCTYPE svg PUBLIC "-//W3C//DTD SVG 1.1//EN" "http://www.w3.org/Graphics/SVG/1.1/DTD/svg11.dtd">
<svg version="1.1" id="Layer_1" xmlns="http://www.w3.org/2000/svg" xmlns:xlink="http://www.w3.org/1999/xlink" x="0px" y="0px"
	 width="424px" height="126px" viewBox="-15.5 -14.5 424 126" enable-background="new -15.5 -14.5 424 126" xml:space="preserve">
<g>
	<path fill="#B30000" d="M40.766,39.159c0,5.658-4.246,10.246-9.483,10.246c-5.238,0-9.484-4.588-9.484-10.246
		C21.799,33.5,40.766,33.5,40.766,39.159z M59.234,39.159c0,5.658,4.246,10.246,9.482,10.246c5.237,0,9.483-4.588,9.483-10.246
		C78.201,33.5,59.234,33.5,59.234,39.159z M100,10.311C100,93.105,50,100,50,100S0,92.574,0,10.311L50,0L100,10.311z M88.82,42.688
		V31.953c0,0-14.035-6.836-20.361-6.836C59.786,25.117,50,31.953,50,31.953s-9.133-6.836-18.458-6.836
		c-6.262,0-20.361,6.836-20.361,6.836v10.735c0,10.998,9.116,18.546,20.361,18.546C39.713,61.234,43.783,51.1,50,51.1
		s10.288,10.135,18.459,10.135C79.704,61.234,88.82,53.686,88.82,42.688z"/>
</g>
<text transform="matrix(1 0 0 1 121.5 65.7344)" font-family="'PTSans-Bold'" font-size="63.058">Reagan</text>
<text transform="matrix(1 0 0 1 332.999 79.4746)" font-family="'PTSans-Bold'" font-size="17.1788">by Trellis</text>
</svg>
